<svg width="231" height="60" viewBox="0 0 231 60" fill="none" xmlns="http://www.w3.org/2000/svg">
<path fill-rule="evenodd" clip-rule="evenodd" d="M8 0C3.58172 0 0 3.58172 0 8V52C0 56.4183 3.58172 60 8 60H223C227.418 60 231 56.4183 231 52V8C231 3.58172 227.418 0 223 0H8ZM47.1463 22.9235C43.8161 24.9277 42.167 27.6459 42.1884 31.2525C42.1884 31.2575 42.1881 31.2668 42.1877 31.2801C42.1745 31.7539 42.0182 37.3425 48.3043 40.2795C47.0982 43.8967 42.9569 51.9295 38.1377 51.9983C36.788 51.9983 35.7089 51.5862 34.5963 51.1613C33.4125 50.7092 32.1907 50.2426 30.5648 50.2426C28.807 50.2426 27.4831 50.7391 26.2429 51.2043C25.19 51.5993 24.1973 51.9716 23.0505 51.9983C18.2741 52.1411 13.6951 43.3044 12.4249 39.6978C11.475 36.9585 11 34.2985 11 31.7231C11 23.0081 16.8758 18.7246 22.4048 18.64C23.9396 18.64 25.7127 19.2752 27.2272 19.8179C28.3563 20.2224 29.3418 20.5755 29.9777 20.5755C30.4918 20.5755 31.3306 20.2685 32.3596 19.8919C34.1507 19.2364 36.5178 18.3701 38.7514 18.5448C42.4659 18.8251 45.2837 20.2793 47.1463 22.9235ZM38.9614 8.0238C39.0432 9.08535 39.2648 11.9637 36.5794 15.1233C34.6368 17.3708 32.2779 18.6876 29.6949 18.4919C29.4761 15.779 30.4954 13.3729 32.2299 11.4268C33.8042 9.61292 36.5687 8.1375 38.9596 8L38.9614 8.0238ZM62.394 11.134H65.93C67.4487 11.134 68.5707 11.6383 69.296 12.647C70.0327 13.6557 70.401 15.129 70.401 17.067C70.401 19.005 70.0327 20.4783 69.296 21.487C68.5707 22.4957 67.4487 23 65.93 23H62.394V11.134ZM65.811 21.436C66.6837 21.436 67.3297 21.147 67.749 20.569C68.1797 19.9797 68.395 19.141 68.395 18.053V16.081C68.395 14.993 68.1797 14.16 67.749 13.582C67.3297 12.9927 66.6837 12.698 65.811 12.698H64.281V21.436H65.811ZM75.9534 23.204C75.3074 23.204 74.7237 23.0963 74.2024 22.881C73.6924 22.6657 73.256 22.3597 72.8934 21.963C72.542 21.5663 72.27 21.0847 72.0774 20.518C71.8847 19.9513 71.7884 19.3167 71.7884 18.614C71.7884 17.9113 71.8847 17.2767 72.0774 16.71C72.27 16.1433 72.542 15.6617 72.8934 15.265C73.256 14.8683 73.6924 14.5623 74.2024 14.347C74.7237 14.1317 75.3074 14.024 75.9534 14.024C76.5994 14.024 77.1774 14.1317 77.6874 14.347C78.2087 14.5623 78.645 14.8683 78.9964 15.265C79.359 15.6617 79.6367 16.1433 79.8294 16.71C80.022 17.2767 80.1184 17.9113 80.1184 18.614C80.1184 19.3167 80.022 19.9513 79.8294 20.518C79.6367 21.0847 79.359 21.5663 78.9964 21.963C78.645 22.3597 78.2087 22.6657 77.6874 22.881C77.1774 23.0963 76.5994 23.204 75.9534 23.204ZM75.9534 21.742C76.6334 21.742 77.1717 21.538 77.5684 21.13C77.9764 20.7107 78.1804 20.093 78.1804 19.277V17.951C78.1804 17.135 77.9764 16.523 77.5684 16.115C77.1717 15.6957 76.6334 15.486 75.9534 15.486C75.2734 15.486 74.7294 15.6957 74.3214 16.115C73.9247 16.523 73.7264 17.135 73.7264 17.951V19.277C73.7264 20.093 73.9247 20.7107 74.3214 21.13C74.7294 21.538 75.2734 21.742 75.9534 21.742ZM81.0467 14.228H82.6277L83.4777 21.606H83.6307L84.9397 14.228H86.7417L88.0337 21.606H88.1867L89.0537 14.228H90.5667L89.3427 23H87.0647L85.8917 16.2H85.7387L84.5487 23H82.2707L81.0467 14.228ZM91.9881 14.228H93.8411V15.724H93.9261C94.0167 15.4973 94.1301 15.282 94.2661 15.078C94.4134 14.8627 94.5891 14.6813 94.7931 14.534C94.9971 14.3753 95.2351 14.2507 95.5071 14.16C95.7791 14.0693 96.0964 14.024 96.4591 14.024C97.3431 14.024 98.0571 14.313 98.6011 14.891C99.1451 15.469 99.4171 16.2907 99.4171 17.356V23H97.5641V17.628C97.5641 16.234 96.9577 15.537 95.7451 15.537C95.5071 15.537 95.2747 15.571 95.0481 15.639C94.8214 15.6957 94.6174 15.7863 94.4361 15.911C94.2547 16.0357 94.1074 16.1943 93.9941 16.387C93.8921 16.5797 93.8411 16.8007 93.8411 17.05V23H91.9881V14.228ZM101.688 21.504H104.595V11.916H101.688V10.42H106.448V21.504H109.355V23H101.688V21.504ZM115.367 23.204C114.721 23.204 114.137 23.0963 113.616 22.881C113.106 22.6657 112.669 22.3597 112.307 21.963C111.955 21.5663 111.683 21.0847 111.491 20.518C111.298 19.9513 111.202 19.3167 111.202 18.614C111.202 17.9113 111.298 17.2767 111.491 16.71C111.683 16.1433 111.955 15.6617 112.307 15.265C112.669 14.8683 113.106 14.5623 113.616 14.347C114.137 14.1317 114.721 14.024 115.367 14.024C116.013 14.024 116.591 14.1317 117.101 14.347C117.622 14.5623 118.058 14.8683 118.41 15.265C118.772 15.6617 119.05 16.1433 119.243 16.71C119.435 17.2767 119.532 17.9113 119.532 18.614C119.532 19.3167 119.435 19.9513 119.243 20.518C119.05 21.0847 118.772 21.5663 118.41 21.963C118.058 22.3597 117.622 22.6657 117.101 22.881C116.591 23.0963 116.013 23.204 115.367 23.204ZM115.367 21.742C116.047 21.742 116.585 21.538 116.982 21.13C117.39 20.7107 117.594 20.093 117.594 19.277V17.951C117.594 17.135 117.39 16.523 116.982 16.115C116.585 15.6957 116.047 15.486 115.367 15.486C114.687 15.486 114.143 15.6957 113.735 16.115C113.338 16.523 113.14 17.135 113.14 17.951V19.277C113.14 20.093 113.338 20.7107 113.735 21.13C114.143 21.538 114.687 21.742 115.367 21.742ZM128.484 23C127.951 23 127.549 22.864 127.277 22.592C127.016 22.32 126.858 21.963 126.801 21.521H126.716C126.546 22.0537 126.234 22.4673 125.781 22.762C125.339 23.0567 124.772 23.204 124.081 23.204C123.186 23.204 122.472 22.9717 121.939 22.507C121.406 22.031 121.14 21.3793 121.14 20.552C121.14 19.702 121.452 19.056 122.075 18.614C122.71 18.1607 123.679 17.934 124.982 17.934H126.665V17.254C126.665 16.064 126.036 15.469 124.778 15.469C124.211 15.469 123.752 15.5823 123.401 15.809C123.05 16.0243 122.755 16.3133 122.517 16.676L121.412 15.775C121.661 15.299 122.081 14.891 122.67 14.551C123.259 14.1997 124.019 14.024 124.948 14.024C126.059 14.024 126.931 14.2903 127.566 14.823C128.201 15.3557 128.518 16.1263 128.518 17.135V21.538H129.623V23H128.484ZM124.608 21.844C125.209 21.844 125.702 21.708 126.087 21.436C126.472 21.164 126.665 20.8127 126.665 20.382V19.107H125.016C123.679 19.107 123.01 19.5093 123.01 20.314V20.654C123.01 21.0507 123.152 21.351 123.435 21.555C123.718 21.7477 124.109 21.844 124.608 21.844ZM136.978 21.504H136.876C136.615 22.0367 136.269 22.456 135.839 22.762C135.408 23.0567 134.87 23.204 134.224 23.204C133.192 23.204 132.371 22.8187 131.759 22.048C131.147 21.2773 130.841 20.1327 130.841 18.614C130.841 17.0953 131.147 15.9507 131.759 15.18C132.371 14.4093 133.192 14.024 134.224 14.024C134.87 14.024 135.408 14.177 135.839 14.483C136.269 14.7777 136.615 15.1913 136.876 15.724H136.978V10.42H138.831V23H136.978V21.504ZM134.989 21.691C135.261 21.691 135.516 21.657 135.754 21.589C135.992 21.521 136.201 21.419 136.383 21.283C136.564 21.147 136.706 20.9827 136.808 20.79C136.921 20.586 136.978 20.348 136.978 20.076V17.152C136.978 16.88 136.921 16.6477 136.808 16.455C136.706 16.251 136.564 16.081 136.383 15.945C136.201 15.809 135.992 15.707 135.754 15.639C135.516 15.571 135.261 15.537 134.989 15.537C134.286 15.537 133.742 15.7523 133.357 16.183C132.983 16.6137 132.796 17.186 132.796 17.9V19.328C132.796 20.042 132.983 20.6143 133.357 21.045C133.742 21.4757 134.286 21.691 134.989 21.691ZM154.78 23.204C154.134 23.204 153.551 23.0963 153.029 22.881C152.519 22.6657 152.083 22.3597 151.72 21.963C151.369 21.5663 151.097 21.0847 150.904 20.518C150.712 19.9513 150.615 19.3167 150.615 18.614C150.615 17.9113 150.712 17.2767 150.904 16.71C151.097 16.1433 151.369 15.6617 151.72 15.265C152.083 14.8683 152.519 14.5623 153.029 14.347C153.551 14.1317 154.134 14.024 154.78 14.024C155.426 14.024 156.004 14.1317 156.514 14.347C157.036 14.5623 157.472 14.8683 157.823 15.265C158.186 15.6617 158.464 16.1433 158.656 16.71C158.849 17.2767 158.945 17.9113 158.945 18.614C158.945 19.3167 158.849 19.9513 158.656 20.518C158.464 21.0847 158.186 21.5663 157.823 21.963C157.472 22.3597 157.036 22.6657 156.514 22.881C156.004 23.0963 155.426 23.204 154.78 23.204ZM154.78 21.742C155.46 21.742 155.999 21.538 156.395 21.13C156.803 20.7107 157.007 20.093 157.007 19.277V17.951C157.007 17.135 156.803 16.523 156.395 16.115C155.999 15.6957 155.46 15.486 154.78 15.486C154.1 15.486 153.556 15.6957 153.148 16.115C152.752 16.523 152.553 17.135 152.553 17.951V19.277C152.553 20.093 152.752 20.7107 153.148 21.13C153.556 21.538 154.1 21.742 154.78 21.742ZM160.962 14.228H162.815V15.724H162.9C162.99 15.4973 163.104 15.282 163.24 15.078C163.387 14.8627 163.563 14.6813 163.767 14.534C163.971 14.3753 164.209 14.2507 164.481 14.16C164.753 14.0693 165.07 14.024 165.433 14.024C166.317 14.024 167.031 14.313 167.575 14.891C168.119 15.469 168.391 16.2907 168.391 17.356V23H166.538V17.628C166.538 16.234 165.931 15.537 164.719 15.537C164.481 15.537 164.248 15.571 164.022 15.639C163.795 15.6957 163.591 15.7863 163.41 15.911C163.228 16.0357 163.081 16.1943 162.968 16.387C162.866 16.5797 162.815 16.8007 162.815 17.05V23H160.962V14.228ZM184.867 23C184.097 23 183.53 22.796 183.167 22.388C182.805 21.9687 182.623 21.4303 182.623 20.773V15.724H179.92V14.228H181.841C182.17 14.228 182.402 14.1657 182.538 14.041C182.674 13.905 182.742 13.667 182.742 13.327V11.134H184.476V14.228H188.216V15.724H184.476V21.504H188.216V23H184.867ZM190.522 10.42H192.375V15.724H192.46C192.55 15.4973 192.664 15.282 192.8 15.078C192.947 14.8627 193.123 14.6813 193.327 14.534C193.531 14.3753 193.769 14.2507 194.041 14.16C194.313 14.0693 194.63 14.024 194.993 14.024C195.877 14.024 196.591 14.313 197.135 14.891C197.679 15.469 197.951 16.2907 197.951 17.356V23H196.098V17.628C196.098 16.234 195.491 15.537 194.279 15.537C194.041 15.537 193.808 15.571 193.582 15.639C193.355 15.6957 193.151 15.7863 192.97 15.911C192.788 16.0357 192.641 16.1943 192.528 16.387C192.426 16.5797 192.375 16.8007 192.375 17.05V23H190.522V10.42ZM204.234 23.204C203.565 23.204 202.965 23.0963 202.432 22.881C201.899 22.6657 201.452 22.3597 201.089 21.963C200.726 21.5663 200.449 21.0903 200.256 20.535C200.063 19.9683 199.967 19.3337 199.967 18.631C199.967 17.9283 200.063 17.2937 200.256 16.727C200.46 16.1603 200.738 15.6787 201.089 15.282C201.452 14.874 201.888 14.5623 202.398 14.347C202.908 14.1317 203.475 14.024 204.098 14.024C204.71 14.024 205.265 14.1317 205.764 14.347C206.263 14.551 206.688 14.8457 207.039 15.231C207.39 15.6163 207.657 16.0753 207.838 16.608C208.031 17.1407 208.127 17.73 208.127 18.376V19.073H201.837V19.362C201.837 20.0533 202.052 20.62 202.483 21.062C202.914 21.4927 203.509 21.708 204.268 21.708C204.835 21.708 205.316 21.589 205.713 21.351C206.121 21.1017 206.45 20.773 206.699 20.365L207.855 21.385C207.56 21.895 207.107 22.3257 206.495 22.677C205.894 23.0283 205.141 23.204 204.234 23.204ZM204.098 15.435C203.769 15.435 203.463 15.4917 203.18 15.605C202.908 15.7183 202.67 15.8827 202.466 16.098C202.273 16.302 202.12 16.5457 202.007 16.829C201.894 17.1123 201.837 17.424 201.837 17.764V17.883H206.24V17.713C206.24 17.0217 206.042 16.472 205.645 16.064C205.26 15.6447 204.744 15.435 204.098 15.435ZM79.5522 42.2012L80.9196 47H83.9898L78.7266 28.9916H74.7792L69.516 47H72.4572L73.8246 42.2012H79.5522ZM76.5852 31.907H76.7916L79.0104 39.8018H74.3664L76.5852 31.907ZM88.5463 33.6872H85.7341V52.16H88.5463V44.7296H88.7011C89.0967 45.538 89.6213 46.1744 90.2749 46.6388C90.9285 47.086 91.7455 47.3096 92.7259 47.3096C94.2911 47.3096 95.5381 46.7248 96.4669 45.5552C97.3957 44.3856 97.8601 42.6484 97.8601 40.3436C97.8601 38.0388 97.3957 36.3016 96.4669 35.132C95.5381 33.9624 94.2911 33.3776 92.7259 33.3776C91.7455 33.3776 90.9285 33.6098 90.2749 34.0742C89.6213 34.5214 89.0967 35.1492 88.7011 35.9576H88.5463V33.6872ZM94.0159 44.033C93.4483 44.6866 92.6313 45.0134 91.5649 45.0134C91.1521 45.0134 90.7651 44.9618 90.4039 44.8586C90.0427 44.7554 89.7245 44.6006 89.4493 44.3942C89.1741 44.1878 88.9505 43.9384 88.7785 43.646C88.6237 43.3364 88.5463 42.9752 88.5463 42.5624V38.1248C88.5463 37.712 88.6237 37.3594 88.7785 37.067C88.9505 36.7574 89.1741 36.4994 89.4493 36.293C89.7245 36.0866 90.0427 35.9318 90.4039 35.8286C90.7651 35.7254 91.1521 35.6738 91.5649 35.6738C92.6313 35.6738 93.4483 36.0006 94.0159 36.6542C94.6007 37.3078 94.8931 38.1764 94.8931 39.26V41.4272C94.8931 42.5108 94.6007 43.3794 94.0159 44.033ZM103.242 33.6872H100.43V52.16H103.242V44.7296H103.397C103.793 45.538 104.317 46.1744 104.971 46.6388C105.624 47.086 106.441 47.3096 107.422 47.3096C108.987 47.3096 110.234 46.7248 111.163 45.5552C112.092 44.3856 112.556 42.6484 112.556 40.3436C112.556 38.0388 112.092 36.3016 111.163 35.132C110.234 33.9624 108.987 33.3776 107.422 33.3776C106.441 33.3776 105.624 33.6098 104.971 34.0742C104.317 34.5214 103.793 35.1492 103.397 35.9576H103.242V33.6872ZM108.712 44.033C108.144 44.6866 107.327 45.0134 106.261 45.0134C105.848 45.0134 105.461 44.9618 105.1 44.8586C104.739 44.7554 104.42 44.6006 104.145 44.3942C103.87 44.1878 103.646 43.9384 103.474 43.646C103.32 43.3364 103.242 42.9752 103.242 42.5624V38.1248C103.242 37.712 103.32 37.3594 103.474 37.067C103.646 36.7574 103.87 36.4994 104.145 36.293C104.42 36.0866 104.739 35.9318 105.1 35.8286C105.461 35.7254 105.848 35.6738 106.261 35.6738C107.327 35.6738 108.144 36.0006 108.712 36.6542C109.297 37.3078 109.589 38.1764 109.589 39.26V41.4272C109.589 42.5108 109.297 43.3794 108.712 44.033ZM131.421 46.484C132.488 47.0344 133.804 47.3096 135.369 47.3096C136.418 47.3096 137.347 47.1806 138.155 46.9226C138.981 46.6474 139.669 46.269 140.219 45.7874C140.787 45.3058 141.208 44.721 141.483 44.033C141.776 43.345 141.922 42.5882 141.922 41.7626C141.922 40.4898 141.552 39.4148 140.813 38.5376C140.073 37.6432 138.895 37.0498 137.278 36.7574L135.369 36.422C134.251 36.2328 133.468 35.9318 133.021 35.519C132.591 35.089 132.376 34.5042 132.376 33.7646C132.376 32.8874 132.651 32.2252 133.202 31.778C133.769 31.3136 134.586 31.0814 135.653 31.0814C136.65 31.0814 137.484 31.2706 138.155 31.649C138.843 32.0102 139.437 32.4918 139.935 33.0938L141.741 31.2878C141.122 30.4622 140.305 29.8258 139.29 29.3786C138.293 28.9142 137.08 28.682 135.653 28.682C133.726 28.682 132.213 29.1292 131.112 30.0236C130.011 30.9008 129.461 32.1908 129.461 33.8936C129.461 34.4956 129.538 35.0718 129.693 35.6222C129.865 36.1554 130.131 36.6456 130.493 37.0928C130.854 37.5228 131.327 37.9012 131.912 38.228C132.496 38.5376 133.219 38.7612 134.079 38.8988L136.04 39.2084C137.123 39.3976 137.889 39.7072 138.336 40.1372C138.783 40.55 139.007 41.1434 139.007 41.9174C139.007 42.8806 138.697 43.6202 138.078 44.1362C137.476 44.6522 136.607 44.9102 135.472 44.9102C134.492 44.9102 133.614 44.721 132.84 44.3426C132.066 43.947 131.335 43.3364 130.647 42.5108L128.79 44.291C129.478 45.2026 130.355 45.9336 131.421 46.484ZM148.439 46.0712C148.99 46.6904 149.85 47 151.019 47H156.102V44.7296H150.426V35.9576H156.102V33.6872H150.426V28.9916H147.794V32.3198C147.794 32.8358 147.691 33.197 147.485 33.4034C147.278 33.5926 146.926 33.6872 146.427 33.6872H143.512V35.9576H147.614V43.6202C147.614 44.6178 147.889 45.4348 148.439 46.0712ZM162.258 46.8194C163.049 47.1462 163.935 47.3096 164.916 47.3096C165.896 47.3096 166.773 47.1462 167.547 46.8194C168.338 46.4926 169.001 46.0282 169.534 45.4262C170.084 44.8242 170.506 44.0932 170.798 43.2332C171.09 42.3732 171.237 41.41 171.237 40.3436C171.237 39.2772 171.09 38.314 170.798 37.454C170.506 36.594 170.084 35.863 169.534 35.261C169.001 34.659 168.338 34.1946 167.547 33.8678C166.773 33.541 165.896 33.3776 164.916 33.3776C163.935 33.3776 163.049 33.541 162.258 33.8678C161.484 34.1946 160.822 34.659 160.272 35.261C159.738 35.863 159.326 36.594 159.033 37.454C158.741 38.314 158.595 39.2772 158.595 40.3436C158.595 41.41 158.741 42.3732 159.033 43.2332C159.326 44.0932 159.738 44.8242 160.272 45.4262C160.822 46.0282 161.484 46.4926 162.258 46.8194ZM167.367 44.162C166.765 44.7812 165.948 45.0908 164.916 45.0908C163.884 45.0908 163.058 44.7812 162.439 44.162C161.837 43.5256 161.536 42.5882 161.536 41.3498V39.3374C161.536 38.099 161.837 37.1702 162.439 36.551C163.058 35.9146 163.884 35.5964 164.916 35.5964C165.948 35.5964 166.765 35.9146 167.367 36.551C167.986 37.1702 168.295 38.099 168.295 39.3374V41.3498C168.295 42.5882 167.986 43.5256 167.367 44.162ZM177.367 44.7296H173.832V47H185.004V44.7296H180.179V39.7502C180.179 38.7182 180.506 37.9012 181.159 37.2992C181.813 36.68 182.656 36.3704 183.688 36.3704H186.319V33.6872H184.72C184.049 33.6872 183.464 33.7904 182.965 33.9968C182.467 34.186 182.045 34.444 181.701 34.7708C181.357 35.0804 181.073 35.4502 180.85 35.8802C180.626 36.3102 180.454 36.7574 180.334 37.2218H180.179V33.6872H173.832V35.9576H177.367V44.7296ZM191.856 46.8194C192.665 47.1462 193.576 47.3096 194.591 47.3096C195.967 47.3096 197.111 47.043 198.023 46.5098C198.951 45.9766 199.639 45.323 200.087 44.549L198.332 43.001C197.954 43.6202 197.455 44.119 196.836 44.4974C196.234 44.8586 195.503 45.0392 194.643 45.0392C193.49 45.0392 192.587 44.7124 191.934 44.0588C191.28 43.388 190.953 42.528 190.953 41.4788V41.0402H200.499V39.9824C200.499 39.002 200.353 38.1076 200.061 37.2992C199.786 36.4908 199.381 35.7942 198.848 35.2094C198.315 34.6246 197.67 34.1774 196.913 33.8678C196.156 33.541 195.314 33.3776 194.385 33.3776C193.439 33.3776 192.579 33.541 191.805 33.8678C191.031 34.1946 190.369 34.6676 189.818 35.2868C189.285 35.8888 188.864 36.6198 188.554 37.4798C188.262 38.3398 188.115 39.303 188.115 40.3694C188.115 41.4358 188.262 42.399 188.554 43.259C188.846 44.1018 189.268 44.8242 189.818 45.4262C190.369 46.0282 191.048 46.4926 191.856 46.8194ZM192.992 35.777C193.422 35.605 193.886 35.519 194.385 35.519C195.365 35.519 196.148 35.8372 196.733 36.4736C197.335 37.0928 197.636 37.927 197.636 38.9762V39.2342H190.953V39.0536C190.953 38.5376 191.039 38.0646 191.211 37.6346C191.383 37.2046 191.616 36.8348 191.908 36.5252C192.218 36.1984 192.579 35.949 192.992 35.777Z" fill="#1DB818" fill-opacity="0.51"/>
</svg>
