<svg width="20" height="21" viewBox="0 0 20 21" fill="none" xmlns="http://www.w3.org/2000/svg">
<path d="M20 10.0672C20.0003 8.14426 19.453 6.26147 18.4227 4.6418C17.3925 3.02213 15.9225 1.73343 14.1869 0.928297C12.4513 0.123161 10.5228 -0.164686 8.6296 0.0988395C6.73644 0.362365 4.95798 1.16623 3.50481 2.41523C2.05165 3.66424 0.98464 5.30608 0.430139 7.14634C-0.124362 8.98661 -0.143132 10.9482 0.376052 12.7989C0.895236 14.6495 1.93063 16.3117 3.35962 17.5887C4.78862 18.8656 6.55136 19.7038 8.43913 20.0039V12.9739H5.90062V10.0672H8.43913V7.8493C8.43913 5.32826 9.92981 3.93525 12.2161 3.93525C12.9652 3.94577 13.7126 4.01135 14.4522 4.13148V6.6069H13.1925C12.9777 6.57827 12.7592 6.59864 12.5533 6.66649C12.3473 6.73435 12.1592 6.84795 12.0028 6.99889C11.8464 7.14983 11.7257 7.33424 11.6498 7.53846C11.5738 7.74268 11.5445 7.96148 11.564 8.17865V10.0672H14.3373L13.8938 12.9751H11.564V20.0039C13.9156 19.6292 16.0572 18.4227 17.6036 16.6012C19.15 14.7797 19.9997 12.4628 20 10.0672V10.0672Z" fill="#1DB818"/>
</svg>
