<svg width="41" height="32" viewBox="0 0 41 32" fill="none" xmlns="http://www.w3.org/2000/svg">
<g clip-path="url(#clip0)">
<path fill-rule="evenodd" clip-rule="evenodd" d="M10.5025 0H7.87685V1.38628H6.59088V17.3285H5.31898V16H3.98926V14.6715H1.38763V14.6728H0.115723V18.6544H1.38763L1.37097 18.6544V21.3825H2.65953V24.0866H3.99659V27.9447L5.26116 27.9447V27.9567H5.30904V30.6728H6.62186V30.6715H19.7652V30.6728H6.56435V32L21.078 32V26.6913H19.7725V26.6859H21.0782V26.6912H22.3911V20.0553L23.6457 20.0553V13.3456H22.3741V12.0144H21.1022V10.6859H18.4427V9.3574H14.5114V8.02888H11.7941V1.38628H10.5025V0ZM22.3329 20.0553L21.1022 20.0553V20.0433H22.3329V20.0553Z" fill="#1DB818"/>
</g>
<defs>
<clipPath id="clip0">
<rect width="23.7037" height="32" fill="white"/>
</clipPath>
</defs>
</svg>
