<svg width="172" height="35" viewBox="0 0 172 35" fill="none" xmlns="http://www.w3.org/2000/svg">
<rect x="60.3613" y="0.5" width="49.6579" height="34" stroke="#26DF21"/>
<path d="M79.3907 9H83.1554V9.94118H85.979V11.8235H88.8025V12.7647H90.6849V11.8235H93.5084V9.94118H94.4496V9H98.2143V11.8235H97.2731V12.7647H94.4496V14.6471H91.626V15.5882H87.8613V14.6471H85.0378V12.7647H82.2143V11.8235H80.3319V12.7647H77.5084V14.6471H75.626V15.5882H71.8613V12.7647H73.7437V11.8235H76.5672V9.94118H79.3907V9Z" fill="#26DF21"/>
<path d="M79.3907 18.4118H83.1554V19.3529H85.979V21.2353H88.8025V22.1765H90.6849V21.2353H93.5084V19.3529H94.4496V18.4118H98.2143V21.2353H97.2731V22.1765H94.4496V24.0588H91.626V25H87.8613V24.0588H85.0378V22.1765H82.2143V21.2353H80.3319V22.1765H77.5084V24.0588H75.626V25H71.8613V22.1765H73.7437V21.2353H76.5672V19.3529H79.3907V18.4118Z" fill="#26DF21"/>
<rect x="0.5" y="0.5" width="49.6579" height="34" stroke="#26DF21"/>
<path d="M31.7826 11.5C31.7826 12.075 31.7273 12.575 31.6166 13C31.7273 13.4 31.7826 13.9 31.7826 14.5C31.7826 15.075 31.7273 15.575 31.6166 16H29.5415C29.6522 16.4 29.7075 16.9 29.7075 17.5C29.7075 18.075 29.6522 18.575 29.5415 19H27.4664C27.5771 19.4 27.6324 19.9 27.6324 20.5C27.6324 21.075 27.5771 21.575 27.4664 22H24.1462C24.0356 21.575 23.9802 21.075 23.9802 20.5C23.9802 19.9 24.0356 19.4 24.1462 19H26.2213C26.1107 18.575 26.0553 18.075 26.0553 17.5C26.0553 16.9 26.1107 16.4 26.2213 16H28.2964C28.1858 15.575 28.1304 15.075 28.1304 14.5C28.1304 13.9 28.1858 13.4 28.2964 13C28.1858 12.575 28.1304 12.075 28.1304 11.5C28.1304 10.9 28.1858 10.4 28.2964 10H22.4862C22.5968 10.4 22.6522 10.9 22.6522 11.5C22.6522 12.075 22.5968 12.575 22.4862 13H19.166C19.0553 12.575 19 12.075 19 11.5C19 10.9 19.0553 10.4 19.166 10H21.6561C21.5455 9.575 21.4901 9.075 21.4901 8.5C21.4901 7.9 21.5455 7.4 21.6561 7H29.9565C30.0672 7.4 30.1225 7.9 30.1225 8.5C30.1225 9.075 30.0672 9.575 29.9565 10H31.6166C31.7273 10.4 31.7826 10.9 31.7826 11.5ZM27.4664 25C27.5771 25.4 27.6324 25.9 27.6324 26.5C27.6324 27.075 27.5771 27.575 27.4664 28H24.1462C24.0356 27.575 23.9802 27.075 23.9802 26.5C23.9802 25.9 24.0356 25.4 24.1462 25H27.4664Z" fill="#26DF21"/>
<rect x="120.223" y="0.5" width="49.6579" height="34" stroke="#26DF21"/>
<path d="M142.393 17.2C142.393 17.7586 142.344 18.2443 142.247 18.6571H140.426C140.523 19.0457 140.571 19.5314 140.571 20.1143C140.571 20.6729 140.523 21.1586 140.426 21.5714H138.604C138.701 21.96 138.75 22.4457 138.75 23.0286C138.75 23.5871 138.701 24.0729 138.604 24.4857H136.783C136.88 24.8743 136.928 25.36 136.928 25.9429C136.928 26.5014 136.88 26.9871 136.783 27.4H133.868C133.771 26.9871 133.723 26.5014 133.723 25.9429C133.723 25.36 133.771 24.8743 133.868 24.4857H135.69C135.593 24.0729 135.544 23.5871 135.544 23.0286C135.544 22.4457 135.593 21.96 135.69 21.5714H137.511C137.414 21.1586 137.366 20.6729 137.366 20.1143C137.366 19.5314 137.414 19.0457 137.511 18.6571H139.333C139.236 18.2443 139.187 17.7586 139.187 17.2C139.187 16.6171 139.236 16.1314 139.333 15.7429H137.511C137.414 15.33 137.366 14.8443 137.366 14.2857C137.366 13.7029 137.414 13.2171 137.511 12.8286H135.69C135.593 12.4157 135.544 11.93 135.544 11.3714C135.544 10.7886 135.593 10.3029 135.69 9.91428H133.868C133.771 9.50143 133.723 9.01571 133.723 8.45714C133.723 7.87428 133.771 7.38857 133.868 7H136.783C136.88 7.38857 136.928 7.87428 136.928 8.45714C136.928 9.01571 136.88 9.50143 136.783 9.91428H138.604C138.701 10.3029 138.75 10.7886 138.75 11.3714C138.75 11.93 138.701 12.4157 138.604 12.8286H140.426C140.523 13.2171 140.571 13.7029 140.571 14.2857C140.571 14.8443 140.523 15.33 140.426 15.7429H142.247C142.344 16.1314 142.393 16.6171 142.393 17.2Z" fill="#26DF21"/>
<path d="M156.978 17.2C156.978 17.7586 156.93 18.2443 156.833 18.6571H155.011C155.108 19.0457 155.157 19.5314 155.157 20.1143C155.157 20.6729 155.108 21.1586 155.011 21.5714H153.19C153.287 21.96 153.335 22.4457 153.335 23.0286C153.335 23.5871 153.287 24.0729 153.19 24.4857H151.368C151.465 24.8743 151.514 25.36 151.514 25.9429C151.514 26.5014 151.465 26.9871 151.368 27.4H148.454C148.357 26.9871 148.308 26.5014 148.308 25.9429C148.308 25.36 148.357 24.8743 148.454 24.4857H150.275C150.178 24.0729 150.13 23.5871 150.13 23.0286C150.13 22.4457 150.178 21.96 150.275 21.5714H152.097C152 21.1586 151.951 20.6729 151.951 20.1143C151.951 19.5314 152 19.0457 152.097 18.6571H153.918C153.821 18.2443 153.773 17.7586 153.773 17.2C153.773 16.6171 153.821 16.1314 153.918 15.7429H152.097C152 15.33 151.951 14.8443 151.951 14.2857C151.951 13.7029 152 13.2171 152.097 12.8286H150.275C150.178 12.4157 150.13 11.93 150.13 11.3714C150.13 10.7886 150.178 10.3029 150.275 9.91428H148.454C148.357 9.50143 148.308 9.01571 148.308 8.45714C148.308 7.87428 148.357 7.38857 148.454 7H151.368C151.465 7.38857 151.514 7.87428 151.514 8.45714C151.514 9.01571 151.465 9.50143 151.368 9.91428H153.19C153.287 10.3029 153.335 10.7886 153.335 11.3714C153.335 11.93 153.287 12.4157 153.19 12.8286H155.011C155.108 13.2171 155.157 13.7029 155.157 14.2857C155.157 14.8443 155.108 15.33 155.011 15.7429H156.833C156.93 16.1314 156.978 16.6171 156.978 17.2Z" fill="#26DF21"/>
</svg>
