<svg width="196" height="35" viewBox="0 0 196 35" fill="none" xmlns="http://www.w3.org/2000/svg">
<rect x="144.5" y="0.5" width="49.6579" height="34" stroke="#26DF21"/>
<path d="M163.529 9H167.294V9.94118H170.118V11.8235H172.941V12.7647H174.824V11.8235H177.647V9.94118H178.588V9H182.353V11.8235H181.412V12.7647H178.588V14.6471H175.765V15.5882H172V14.6471H169.176V12.7647H166.353V11.8235H164.471V12.7647H161.647V14.6471H159.765V15.5882H156V12.7647H157.882V11.8235H160.706V9.94118H163.529V9Z" fill="#26DF21"/>
<path d="M163.529 18.4118H167.294V19.3529H170.118V21.2353H172.941V22.1765H174.824V21.2353H177.647V19.3529H178.588V18.4118H182.353V21.2353H181.412V22.1765H178.588V24.0588H175.765V25H172V24.0588H169.176V22.1765H166.353V21.2353H164.471V22.1765H161.647V24.0588H159.765V25H156V22.1765H157.882V21.2353H160.706V19.3529H163.529V18.4118Z" fill="#26DF21"/>
<rect x="0.5" y="0.5" width="49.6579" height="34" stroke="#26DF21"/>
<path d="M31.7826 11.5C31.7826 12.075 31.7273 12.575 31.6166 13C31.7273 13.4 31.7826 13.9 31.7826 14.5C31.7826 15.075 31.7273 15.575 31.6166 16H29.5415C29.6522 16.4 29.7075 16.9 29.7075 17.5C29.7075 18.075 29.6522 18.575 29.5415 19H27.4664C27.5771 19.4 27.6324 19.9 27.6324 20.5C27.6324 21.075 27.5771 21.575 27.4664 22H24.1462C24.0356 21.575 23.9802 21.075 23.9802 20.5C23.9802 19.9 24.0356 19.4 24.1462 19H26.2213C26.1107 18.575 26.0553 18.075 26.0553 17.5C26.0553 16.9 26.1107 16.4 26.2213 16H28.2964C28.1858 15.575 28.1304 15.075 28.1304 14.5C28.1304 13.9 28.1858 13.4 28.2964 13C28.1858 12.575 28.1304 12.075 28.1304 11.5C28.1304 10.9 28.1858 10.4 28.2964 10H22.4862C22.5968 10.4 22.6522 10.9 22.6522 11.5C22.6522 12.075 22.5968 12.575 22.4862 13H19.166C19.0553 12.575 19 12.075 19 11.5C19 10.9 19.0553 10.4 19.166 10H21.6561C21.5455 9.575 21.4901 9.075 21.4901 8.5C21.4901 7.9 21.5455 7.4 21.6561 7H29.9565C30.0672 7.4 30.1225 7.9 30.1225 8.5C30.1225 9.075 30.0672 9.575 29.9565 10H31.6166C31.7273 10.4 31.7826 10.9 31.7826 11.5ZM27.4664 25C27.5771 25.4 27.6324 25.9 27.6324 26.5C27.6324 27.075 27.5771 27.575 27.4664 28H24.1462C24.0356 27.575 23.9802 27.075 23.9802 26.5C23.9802 25.9 24.0356 25.4 24.1462 25H27.4664Z" fill="#26DF21"/>
<rect x="73.5" y="0.5" width="49.6579" height="34" stroke="#26DF21"/>
<path d="M95.67 17.2C95.67 17.7586 95.6214 18.2443 95.5243 18.6571H93.7029C93.8 19.0457 93.8486 19.5314 93.8486 20.1143C93.8486 20.6729 93.8 21.1586 93.7029 21.5714H91.8814C91.9786 21.96 92.0271 22.4457 92.0271 23.0286C92.0271 23.5871 91.9786 24.0729 91.8814 24.4857H90.06C90.1571 24.8743 90.2057 25.36 90.2057 25.9429C90.2057 26.5014 90.1571 26.9871 90.06 27.4H87.1457C87.0486 26.9871 87 26.5014 87 25.9429C87 25.36 87.0486 24.8743 87.1457 24.4857H88.9671C88.87 24.0729 88.8214 23.5871 88.8214 23.0286C88.8214 22.4457 88.87 21.96 88.9671 21.5714H90.7886C90.6914 21.1586 90.6429 20.6729 90.6429 20.1143C90.6429 19.5314 90.6914 19.0457 90.7886 18.6571H92.61C92.5129 18.2443 92.4643 17.7586 92.4643 17.2C92.4643 16.6171 92.5129 16.1314 92.61 15.7429H90.7886C90.6914 15.33 90.6429 14.8443 90.6429 14.2857C90.6429 13.7029 90.6914 13.2171 90.7886 12.8286H88.9671C88.87 12.4157 88.8214 11.93 88.8214 11.3714C88.8214 10.7886 88.87 10.3029 88.9671 9.91428H87.1457C87.0486 9.50143 87 9.01571 87 8.45714C87 7.87428 87.0486 7.38857 87.1457 7H90.06C90.1571 7.38857 90.2057 7.87428 90.2057 8.45714C90.2057 9.01571 90.1571 9.50143 90.06 9.91428H91.8814C91.9786 10.3029 92.0271 10.7886 92.0271 11.3714C92.0271 11.93 91.9786 12.4157 91.8814 12.8286H93.7029C93.8 13.2171 93.8486 13.7029 93.8486 14.2857C93.8486 14.8443 93.8 15.33 93.7029 15.7429H95.5243C95.6214 16.1314 95.67 16.6171 95.67 17.2Z" fill="#26DF21"/>
<path d="M110.256 17.2C110.256 17.7586 110.207 18.2443 110.11 18.6571H108.289C108.386 19.0457 108.434 19.5314 108.434 20.1143C108.434 20.6729 108.386 21.1586 108.289 21.5714H106.467C106.564 21.96 106.613 22.4457 106.613 23.0286C106.613 23.5871 106.564 24.0729 106.467 24.4857H104.646C104.743 24.8743 104.791 25.36 104.791 25.9429C104.791 26.5014 104.743 26.9871 104.646 27.4H101.731C101.634 26.9871 101.586 26.5014 101.586 25.9429C101.586 25.36 101.634 24.8743 101.731 24.4857H103.553C103.456 24.0729 103.407 23.5871 103.407 23.0286C103.407 22.4457 103.456 21.96 103.553 21.5714H105.374C105.277 21.1586 105.229 20.6729 105.229 20.1143C105.229 19.5314 105.277 19.0457 105.374 18.6571H107.196C107.099 18.2443 107.05 17.7586 107.05 17.2C107.05 16.6171 107.099 16.1314 107.196 15.7429H105.374C105.277 15.33 105.229 14.8443 105.229 14.2857C105.229 13.7029 105.277 13.2171 105.374 12.8286H103.553C103.456 12.4157 103.407 11.93 103.407 11.3714C103.407 10.7886 103.456 10.3029 103.553 9.91428H101.731C101.634 9.50143 101.586 9.01571 101.586 8.45714C101.586 7.87428 101.634 7.38857 101.731 7H104.646C104.743 7.38857 104.791 7.87428 104.791 8.45714C104.791 9.01571 104.743 9.50143 104.646 9.91428H106.467C106.564 10.3029 106.613 10.7886 106.613 11.3714C106.613 11.93 106.564 12.4157 106.467 12.8286H108.289C108.386 13.2171 108.434 13.7029 108.434 14.2857C108.434 14.8443 108.386 15.33 108.289 15.7429H110.11C110.207 16.1314 110.256 16.6171 110.256 17.2Z" fill="#26DF21"/>
</svg>
