<svg width="20" height="20" viewBox="0 0 20 20" fill="none" xmlns="http://www.w3.org/2000/svg">
<path fill-rule="evenodd" clip-rule="evenodd" d="M2.92893 17.0711C4.8043 18.9464 7.34784 20 10 20C12.6522 20 15.1957 18.9464 17.0711 17.0711C18.9464 15.1957 20 12.6522 20 10C20 7.34784 18.9464 4.8043 17.0711 2.92893C15.1957 1.05357 12.6522 0 10 0C7.34784 0 4.8043 1.05357 2.92893 2.92893C1.05357 4.8043 0 7.34784 0 10C0 12.6522 1.05357 15.1957 2.92893 17.0711ZM12.5857 4.79234C11.9107 4.7607 11.7086 4.75484 10 4.75484C8.29323 4.75484 8.08933 4.7607 7.41435 4.79234C7.00834 4.79783 6.60626 4.87274 6.22551 5.01382C5.94973 5.12014 5.69928 5.28304 5.49029 5.49204C5.28129 5.70103 5.11839 5.95148 5.01207 6.22726C4.87005 6.60775 4.79511 7.00999 4.79059 7.4161C4.75895 8.09107 4.7531 8.29497 4.7531 10.0018C4.7531 11.7085 4.76071 11.9124 4.79059 12.5874C4.79607 12.9934 4.87098 13.3955 5.01207 13.7763C5.11839 14.052 5.28129 14.3025 5.49029 14.5115C5.69928 14.7205 5.94973 14.8834 6.22551 14.9897C6.606 15.1317 7.00825 15.2067 7.41435 15.2112C8.08933 15.2428 8.29323 15.2487 10 15.2487C11.7068 15.2487 11.9107 15.2411 12.5857 15.2112C12.9917 15.2057 13.3938 15.1308 13.7745 14.9897C14.0503 14.8834 14.3007 14.7205 14.5097 14.5115C14.7187 14.3025 14.8816 14.052 14.9879 13.7763C15.13 13.3958 15.2049 12.9935 15.2094 12.5874C15.2411 11.9124 15.2469 11.7085 15.2469 10.0018C15.2469 8.29497 15.2393 8.09107 15.2094 7.4161C15.2039 7.01009 15.129 6.60801 14.9879 6.22726C14.8816 5.95148 14.7187 5.70103 14.5097 5.49204C14.3007 5.28304 14.0503 5.12014 13.7745 5.01382C13.394 4.8718 12.9918 4.79686 12.5857 4.79234ZM7.36337 3.64101C8.04421 3.60937 8.26159 3.60175 10 3.60175L9.99825 3.6C11.7367 3.6 11.954 3.60761 12.6349 3.6375C13.1661 3.64894 13.6916 3.74976 14.1893 3.93573C14.6146 4.10002 15.001 4.35113 15.3238 4.67304C15.6466 4.99495 15.8988 5.3806 16.0643 5.8054C16.2508 6.30299 16.3516 6.82857 16.3625 7.35984C16.3941 8.04068 16.4018 8.25982 16.4018 9.99648C16.4018 11.7331 16.3941 11.9505 16.3625 12.6331C16.3511 13.1643 16.2503 13.6898 16.0643 14.1876C15.9 14.6128 15.6489 14.9992 15.327 15.322C15.0051 15.6448 14.6194 15.897 14.1946 16.0625C13.697 16.249 13.1714 16.3498 12.6402 16.3607C11.9593 16.3924 11.7402 16.4 10.0035 16.4C8.26686 16.4 8.04948 16.3924 7.36688 16.3607C6.83567 16.3493 6.31017 16.2485 5.81244 16.0625C5.38718 15.8982 5.00082 15.6471 4.678 15.3252C4.35518 15.0033 4.10298 14.6176 3.9375 14.1928C3.75101 13.6953 3.65017 13.1697 3.63926 12.6384C3.60762 11.9576 3.60001 11.7384 3.60001 10.0018C3.60001 8.26509 3.60762 8.04771 3.63926 7.36512C3.65071 6.8339 3.75153 6.3084 3.9375 5.81067C4.09866 5.38348 4.35076 4.99643 4.67634 4.67633C4.99484 4.35006 5.38163 4.09834 5.80893 3.93924C6.30651 3.75275 6.8321 3.65192 7.36337 3.64101ZM9.99989 6.71512C9.34978 6.71512 8.71427 6.90789 8.17372 7.26907C7.63317 7.63025 7.21188 8.14362 6.9631 8.74424C6.71431 9.34486 6.64922 10.0058 6.77605 10.6434C6.90287 11.281 7.21593 11.8667 7.67563 12.3264C8.13533 12.7861 8.72101 13.0991 9.35863 13.226C9.99625 13.3528 10.6572 13.2877 11.2578 13.0389C11.8584 12.7901 12.3718 12.3688 12.7329 11.8283C13.0941 11.2877 13.2869 10.6522 13.2869 10.0021C13.2868 9.1304 12.9404 8.29442 12.324 7.67802C11.7076 7.06162 10.8716 6.71527 9.99989 6.71512ZM9.99989 12.136C9.57784 12.136 9.16528 12.0109 8.81435 11.7764C8.46343 11.5419 8.18991 11.2087 8.0284 10.8187C7.86689 10.4288 7.82464 9.99976 7.90697 9.58582C7.98931 9.17188 8.19255 8.79164 8.49098 8.49321C8.78941 8.19477 9.16965 7.99154 9.58359 7.9092C9.99753 7.82686 10.4266 7.86912 10.8165 8.03063C11.2064 8.19214 11.5397 8.46566 11.7742 8.81658C12.0087 9.16751 12.1338 9.58007 12.1338 10.0021C12.1338 10.5681 11.909 11.1108 11.5088 11.511C11.1086 11.9112 10.5658 12.136 9.99989 12.136ZM14.1851 6.58518C14.1851 7.00974 13.8409 7.35391 13.4164 7.35391C12.9918 7.35391 12.6477 7.00974 12.6477 6.58518C12.6477 6.16062 12.9918 5.81645 13.4164 5.81645C13.8409 5.81645 14.1851 6.16062 14.1851 6.58518Z" fill="#1DB818"/>
</svg>
