<svg width="20" height="20" viewBox="0 0 20 20" fill="none" xmlns="http://www.w3.org/2000/svg">
<path fill-rule="evenodd" clip-rule="evenodd" d="M10 20C15.5229 20 20 15.5229 20 10C20 4.47705 15.5229 0 10 0C4.47714 0 0 4.47705 0 10C0 15.5229 4.47714 20 10 20ZM7.15588 5.68677C7.17676 5.73828 7.19366 5.79102 7.20651 5.84473C7.22717 5.93091 7.23737 6.01978 7.23676 6.10889V6.14331C7.23331 6.28784 7.20135 6.43042 7.14279 6.56274C7.08423 6.69482 7.00015 6.81445 6.89542 6.91406C6.79065 7.01392 6.66727 7.09204 6.53232 7.14404C6.39734 7.19629 6.25345 7.22119 6.10883 7.21753C5.81476 7.21753 5.53271 7.10083 5.32477 6.89282C5.22891 6.79688 5.15244 6.6853 5.09784 6.56421C5.03397 6.42236 5 6.26733 5 6.10889C5 5.8147 5.11682 5.53271 5.32477 5.32471C5.53271 5.11694 5.81476 5 6.10883 5H6.14325C6.28784 5.00098 6.43085 5.03052 6.56406 5.08667C6.69727 5.14307 6.81812 5.22485 6.91965 5.32788C7.02121 5.43091 7.10147 5.55273 7.15588 5.68677ZM5.15295 14.3293V8.21167H7.0647V14.3293H5.15295ZM14.3294 10.613C14.3294 8.77393 13.1594 8.05884 11.9971 8.05884C11.6165 8.03979 11.2375 8.12085 10.8981 8.29395C10.5586 8.46704 10.2704 8.72607 10.0623 9.04541H10.0088V8.21167H8.21176V14.3293H10.1235V11.0757C10.0959 10.7424 10.2009 10.4116 10.4156 10.1553C10.6304 9.89917 10.9377 9.73779 11.2706 9.70679H11.3432C11.9512 9.70679 12.4023 10.0891 12.4023 11.0527V14.3293H14.3141L14.3294 10.613Z" fill="#1DB818"/>
</svg>
