<svg width="20" height="20" viewBox="0 0 20 20" fill="none" xmlns="http://www.w3.org/2000/svg">
<path fill-rule="evenodd" clip-rule="evenodd" d="M10 20C15.5229 20 20 15.5229 20 10C20 4.47705 15.5229 0 10 0C4.47714 0 0 4.47705 0 10C0 15.5229 4.47714 20 10 20ZM5.09091 5C4.4884 5 4 5.48853 4 6.09082V13.7273C4 14.3298 4.4884 14.8181 5.09091 14.8181H14.9091C15.5116 14.8181 16 14.3298 16 13.7273V6.09082C16 5.48853 15.5116 5 14.9091 5H5.09091ZM5.63635 6.09082C5.40359 6.09082 5.20486 6.23682 5.12656 6.44189L10 9.69092L14.8734 6.44189C14.7951 6.23682 14.5964 6.09082 14.3636 6.09082H5.63635ZM5.09091 13.1819V8L10 11.2727L14.9091 8V13.1819C14.9091 13.4832 14.6649 13.7273 14.3636 13.7273H5.63635C5.33511 13.7273 5.09091 13.4832 5.09091 13.1819Z" fill="#1DB818"/>
</svg>
