<svg width="559" height="145" viewBox="0 0 559 145" fill="none" xmlns="http://www.w3.org/2000/svg">
<path fill-rule="evenodd" clip-rule="evenodd" d="M0 21C0 9.40202 9.40202 0 21 0H537.25C548.848 0 558.25 9.40202 558.25 21V124C558.25 135.598 548.848 145 537.25 145H21C9.40203 145 0 135.598 0 124V21ZM39.3921 28.04L83.1377 71.47L95.1315 59.4763L42.1065 28.8607C41.2227 28.3478 40.2759 28.0637 39.3921 28.04ZM35.7309 30.06C35.3363 30.7623 35.0996 31.5908 35.0996 32.5219V116.92C35.0996 117.599 35.2416 118.206 35.4784 118.751L80.234 74.3107L35.7309 30.06ZM98.7927 61.5594L85.9784 74.3107L98.7927 86.9988L114.448 78.035C116.673 76.7489 116.989 75.1155 116.973 74.2475C116.949 72.8114 116.042 71.47 114.511 70.6494C113.383 70.0423 106.13 65.8248 101.206 62.9623L101.206 62.9623C100.307 62.4393 99.485 61.9616 98.7927 61.5594ZM83.1377 77.1513L39.0134 120.897C39.7472 120.857 40.5441 120.7 41.2859 120.266C43.0139 119.264 77.9615 99.0557 77.9615 99.0557L95.1946 89.145L83.1377 77.1513ZM163.057 47.6395H162.812C162.602 48.1295 162.345 48.6078 162.042 49.0745C161.762 49.5178 161.4 49.9145 160.957 50.2645C160.537 50.6145 160.023 50.8945 159.417 51.1045C158.81 51.3145 158.11 51.4195 157.317 51.4195C154.773 51.4195 152.86 50.3345 151.577 48.1645C150.293 45.9945 149.652 42.9262 149.652 38.9595C149.652 34.8062 150.387 31.6328 151.857 29.4395C153.327 27.2462 155.578 26.1495 158.612 26.1495C159.802 26.1495 160.84 26.3128 161.727 26.6395C162.637 26.9662 163.407 27.4095 164.037 27.9695C164.667 28.5062 165.192 29.1478 165.612 29.8945C166.032 30.6178 166.37 31.3878 166.627 32.2045L163.092 33.3945C162.905 32.8578 162.695 32.3562 162.462 31.8895C162.228 31.3995 161.937 30.9678 161.587 30.5945C161.26 30.2212 160.852 29.9295 160.362 29.7195C159.895 29.5095 159.323 29.4045 158.647 29.4045C156.943 29.4045 155.707 30.0695 154.937 31.3995C154.19 32.7062 153.817 34.4795 153.817 36.7195V40.6045C153.817 41.7245 153.898 42.7512 154.062 43.6845C154.225 44.6178 154.493 45.4228 154.867 46.0995C155.263 46.7528 155.765 47.2662 156.372 47.6395C157.002 48.0128 157.76 48.1995 158.647 48.1995C160.07 48.1995 161.155 47.7795 161.902 46.9395C162.672 46.0762 163.057 44.9795 163.057 43.6495V41.4445H158.332V38.5045H166.627V50.9995H163.057V47.6395ZM171.303 50.9995V26.5695H186.598V29.8595H175.223V36.9645H186.178V40.2545H175.223V47.7095H186.598V50.9995H171.303ZM201.039 29.8595V50.9995H197.119V29.8595H189.454V26.5695H208.704V29.8595H201.039ZM231.952 50.9995V48.0245H237.692V29.5445H231.952V26.5695H247.352V29.5445H241.612V48.0245H247.352V50.9995H231.952ZM261.898 29.8595V50.9995H257.978V29.8595H250.313V26.5695H269.563V29.8595H261.898ZM300.511 51.4195C298.971 51.4195 297.629 51.1395 296.486 50.5795C295.366 49.9962 294.433 49.1678 293.686 48.0945C292.963 47.0212 292.426 45.7028 292.076 44.1395C291.726 42.5762 291.551 40.7912 291.551 38.7845C291.551 36.8012 291.726 35.0278 292.076 33.4645C292.426 31.8778 292.963 30.5478 293.686 29.4745C294.433 28.4012 295.366 27.5845 296.486 27.0245C297.629 26.4412 298.971 26.1495 300.511 26.1495C302.051 26.1495 303.381 26.4412 304.501 27.0245C305.644 27.5845 306.578 28.4012 307.301 29.4745C308.048 30.5478 308.596 31.8778 308.946 33.4645C309.296 35.0278 309.471 36.8012 309.471 38.7845C309.471 40.7912 309.296 42.5762 308.946 44.1395C308.596 45.7028 308.048 47.0212 307.301 48.0945C306.578 49.1678 305.644 49.9962 304.501 50.5795C303.381 51.1395 302.051 51.4195 300.511 51.4195ZM300.511 48.1645C302.261 48.1645 303.498 47.5112 304.221 46.2045C304.944 44.8745 305.306 43.0778 305.306 40.8145V36.7195C305.306 34.4795 304.944 32.7062 304.221 31.3995C303.498 30.0695 302.261 29.4045 300.511 29.4045C298.761 29.4045 297.524 30.0695 296.801 31.3995C296.078 32.7062 295.716 34.4795 295.716 36.7195V40.8495C295.716 43.0895 296.078 44.8745 296.801 46.2045C297.524 47.5112 298.761 48.1645 300.511 48.1645ZM316.562 32.2045H316.247V50.9995H312.817V26.5695H317.857L325.032 45.3645H325.347V26.5695H328.777V50.9995H323.737L316.562 32.2045ZM171.267 103.18H170.787C170.427 104.02 169.987 104.84 169.467 105.64C168.947 106.44 168.307 107.14 167.547 107.74C166.787 108.34 165.887 108.82 164.847 109.18C163.847 109.54 162.687 109.72 161.367 109.72C157.127 109.72 153.907 107.86 151.707 104.14C149.547 100.38 148.467 95.1196 148.467 88.3596C148.467 81.2396 149.747 75.7996 152.307 72.0396C154.867 68.2796 158.807 66.3996 164.127 66.3996C166.207 66.3996 168.027 66.6796 169.587 67.2396C171.187 67.7996 172.547 68.5796 173.667 69.5796C174.827 70.5796 175.767 71.7796 176.487 73.1796C177.247 74.5396 177.847 76.0196 178.287 77.6196L171.087 79.6596C170.807 78.7796 170.487 77.9196 170.127 77.0796C169.807 76.2396 169.367 75.5196 168.807 74.9196C168.287 74.2796 167.647 73.7796 166.887 73.4196C166.127 73.0196 165.187 72.8196 164.067 72.8196C161.467 72.8196 159.607 73.8596 158.487 75.9396C157.367 78.0196 156.807 80.8596 156.807 84.4596V91.1796C156.807 92.9796 156.927 94.6396 157.167 96.1596C157.447 97.6396 157.887 98.9196 158.487 99.9996C159.087 101.08 159.867 101.92 160.827 102.52C161.787 103.08 162.987 103.36 164.427 103.36C166.667 103.36 168.367 102.7 169.527 101.38C170.687 100.02 171.267 98.2996 171.267 96.2196V92.7996H163.647V87.0996H178.287V109H171.267V103.18ZM199.383 109.72C197.023 109.72 194.903 109.34 193.023 108.58C191.183 107.82 189.603 106.74 188.283 105.34C187.003 103.94 186.003 102.24 185.283 100.24C184.603 98.2396 184.263 95.9996 184.263 93.5196C184.263 91.0396 184.603 88.7996 185.283 86.7996C186.003 84.7996 187.003 83.0996 188.283 81.6996C189.603 80.2996 191.183 79.2196 193.023 78.4596C194.903 77.6996 197.023 77.3196 199.383 77.3196C201.703 77.3196 203.803 77.6996 205.683 78.4596C207.563 79.2196 209.143 80.2996 210.423 81.6996C211.743 83.0996 212.743 84.7996 213.423 86.7996C214.143 88.7996 214.503 91.0396 214.503 93.5196C214.503 95.9996 214.143 98.2396 213.423 100.24C212.743 102.24 211.743 103.94 210.423 105.34C209.143 106.74 207.563 107.82 205.683 108.58C203.803 109.34 201.703 109.72 199.383 109.72ZM199.383 103.84C201.583 103.84 203.323 103.18 204.603 101.86C205.883 100.5 206.523 98.5196 206.523 95.9196V91.1196C206.523 88.5196 205.883 86.5596 204.603 85.2396C203.323 83.8796 201.583 83.1996 199.383 83.1996C197.183 83.1996 195.443 83.8796 194.163 85.2396C192.883 86.5596 192.243 88.5196 192.243 91.1196V95.9196C192.243 98.5196 192.883 100.5 194.163 101.86C195.443 103.18 197.183 103.84 199.383 103.84ZM234.76 109.72C232.4 109.72 230.28 109.34 228.4 108.58C226.56 107.82 224.98 106.74 223.66 105.34C222.38 103.94 221.38 102.24 220.66 100.24C219.98 98.2396 219.64 95.9996 219.64 93.5196C219.64 91.0396 219.98 88.7996 220.66 86.7996C221.38 84.7996 222.38 83.0996 223.66 81.6996C224.98 80.2996 226.56 79.2196 228.4 78.4596C230.28 77.6996 232.4 77.3196 234.76 77.3196C237.08 77.3196 239.18 77.6996 241.06 78.4596C242.94 79.2196 244.52 80.2996 245.8 81.6996C247.12 83.0996 248.12 84.7996 248.8 86.7996C249.52 88.7996 249.88 91.0396 249.88 93.5196C249.88 95.9996 249.52 98.2396 248.8 100.24C248.12 102.24 247.12 103.94 245.8 105.34C244.52 106.74 242.94 107.82 241.06 108.58C239.18 109.34 237.08 109.72 234.76 109.72ZM234.76 103.84C236.96 103.84 238.7 103.18 239.98 101.86C241.26 100.5 241.9 98.5196 241.9 95.9196V91.1196C241.9 88.5196 241.26 86.5596 239.98 85.2396C238.7 83.8796 236.96 83.1996 234.76 83.1996C232.56 83.1996 230.82 83.8796 229.54 85.2396C228.26 86.5596 227.62 88.5196 227.62 91.1196V95.9196C227.62 98.5196 228.26 100.5 229.54 101.86C230.82 103.18 232.56 103.84 234.76 103.84ZM286.696 112.24C286.696 115.48 285.336 117.86 282.616 119.38C279.936 120.94 275.736 121.72 270.016 121.72C267.216 121.72 264.876 121.54 262.996 121.18C261.116 120.86 259.596 120.38 258.436 119.74C257.316 119.1 256.516 118.32 256.036 117.4C255.556 116.52 255.316 115.52 255.316 114.4C255.316 112.68 255.816 111.36 256.816 110.44C257.816 109.52 259.216 108.84 261.016 108.4V107.92C259.816 107.52 258.856 106.96 258.136 106.24C257.456 105.52 257.116 104.52 257.116 103.24C257.116 101.72 257.616 100.58 258.616 99.8196C259.656 99.0596 261.016 98.4796 262.696 98.0796V97.7796C260.856 96.8996 259.416 95.6596 258.376 94.0596C257.336 92.4596 256.816 90.5196 256.816 88.2396C256.816 86.5196 257.116 84.9996 257.716 83.6796C258.356 82.3196 259.236 81.1796 260.356 80.2596C261.516 79.2996 262.896 78.5796 264.496 78.0996C266.096 77.5796 267.876 77.3196 269.836 77.3196C271.916 77.3196 273.796 77.5996 275.476 78.1596V76.8396C275.476 75.6396 275.856 74.6396 276.616 73.8396C277.416 73.0396 278.516 72.6396 279.916 72.6396H285.496V78.3996H278.176V79.4196C279.696 80.3396 280.856 81.5396 281.656 83.0196C282.496 84.4596 282.916 86.1996 282.916 88.2396C282.916 89.9596 282.596 91.4996 281.956 92.8596C281.356 94.2196 280.476 95.3596 279.316 96.2796C278.196 97.1996 276.816 97.9196 275.176 98.4396C273.576 98.9196 271.796 99.1596 269.836 99.1596C269.036 99.1596 268.256 99.1396 267.496 99.0996C266.776 99.0196 266.076 98.8796 265.396 98.6796C264.836 98.8796 264.296 99.1996 263.776 99.6396C263.256 100.08 262.996 100.66 262.996 101.38C262.996 102.34 263.456 102.94 264.376 103.18C265.296 103.38 266.396 103.48 267.676 103.48H274.696C276.856 103.48 278.696 103.7 280.216 104.14C281.736 104.54 282.976 105.14 283.936 105.94C284.896 106.7 285.596 107.62 286.036 108.7C286.476 109.78 286.696 110.96 286.696 112.24ZM279.496 112.78C279.496 111.86 279.116 111.12 278.356 110.56C277.636 110.04 276.276 109.78 274.276 109.78H263.596C262.396 110.46 261.796 111.46 261.796 112.78C261.796 113.86 262.236 114.76 263.116 115.48C264.036 116.2 265.576 116.56 267.736 116.56H272.716C277.236 116.56 279.496 115.3 279.496 112.78ZM269.836 94.1196C271.796 94.1196 273.236 93.6596 274.156 92.7396C275.076 91.7796 275.536 90.5396 275.536 89.0196V87.4596C275.536 85.9396 275.076 84.7196 274.156 83.7996C273.236 82.8396 271.796 82.3596 269.836 82.3596C267.916 82.3596 266.496 82.8396 265.576 83.7996C264.656 84.7196 264.196 85.9396 264.196 87.4596V89.0196C264.196 90.5396 264.656 91.7796 265.576 92.7396C266.496 93.6596 267.916 94.1196 269.836 94.1196ZM291.833 102.94H301.673V70.6596H291.833V64.5996H309.353V102.94H319.253V109H291.833V102.94ZM341.61 109.72C339.13 109.72 336.93 109.34 335.01 108.58C333.09 107.82 331.47 106.74 330.15 105.34C328.87 103.94 327.89 102.26 327.21 100.3C326.53 98.2996 326.19 96.0596 326.19 93.5796C326.19 91.0596 326.53 88.7996 327.21 86.7996C327.93 84.7996 328.93 83.0996 330.21 81.6996C331.49 80.2996 333.03 79.2196 334.83 78.4596C336.67 77.6996 338.73 77.3196 341.01 77.3196C343.25 77.3196 345.27 77.6996 347.07 78.4596C348.87 79.1796 350.39 80.2196 351.63 81.5796C352.91 82.9396 353.89 84.5796 354.57 86.4996C355.25 88.4196 355.59 90.5396 355.59 92.8596V95.3796H333.87V96.1596C333.87 98.3996 334.57 100.22 335.97 101.62C337.37 102.98 339.33 103.66 341.85 103.66C343.77 103.66 345.41 103.28 346.77 102.52C348.17 101.72 349.33 100.68 350.25 99.3996L354.63 103.78C353.51 105.42 351.87 106.82 349.71 107.98C347.59 109.14 344.89 109.72 341.61 109.72ZM341.07 82.9596C338.91 82.9596 337.17 83.6396 335.85 84.9996C334.53 86.3596 333.87 88.1596 333.87 90.3996V90.8196H347.91V90.2796C347.91 88.0396 347.29 86.2596 346.05 84.9396C344.85 83.6196 343.19 82.9596 341.07 82.9596ZM391.843 109V67.1196H407.743C411.823 67.1196 414.943 68.2796 417.103 70.5996C419.263 72.9196 420.343 76.0796 420.343 80.0796C420.343 84.0796 419.263 87.2396 417.103 89.5596C414.943 91.8796 411.823 93.0396 407.743 93.0396H399.703V109H391.843ZM399.703 86.6196H406.123C408.243 86.6196 409.763 86.1996 410.683 85.3596C411.603 84.4796 412.063 83.0996 412.063 81.2196V78.9396C412.063 77.0596 411.603 75.6996 410.683 74.8596C409.763 73.9796 408.243 73.5396 406.123 73.5396H399.703V86.6196ZM426.739 102.94H436.579V70.6596H426.739V64.5996H444.259V102.94H454.159V109H426.739V102.94ZM487.196 109C485.316 109 483.856 108.54 482.816 107.62C481.816 106.66 481.216 105.34 481.016 103.66H480.716C480.156 105.58 479.056 107.08 477.416 108.16C475.776 109.2 473.756 109.72 471.356 109.72C468.236 109.72 465.756 108.9 463.916 107.26C462.076 105.62 461.156 103.34 461.156 100.42C461.156 94.1796 465.736 91.0596 474.896 91.0596H480.356V89.0196C480.356 87.0596 479.876 85.5796 478.916 84.5796C477.956 83.5796 476.396 83.0796 474.236 83.0796C472.276 83.0796 470.696 83.4596 469.496 84.2196C468.296 84.9796 467.276 85.9596 466.436 87.1596L462.056 83.4396C463.016 81.7196 464.556 80.2796 466.676 79.1196C468.836 77.9196 471.616 77.3196 475.016 77.3196C479.096 77.3196 482.276 78.2796 484.556 80.1996C486.876 82.0796 488.036 84.8996 488.036 88.6596V103.24H491.696V109H487.196ZM473.936 104.44C475.776 104.44 477.296 104.02 478.496 103.18C479.736 102.3 480.356 101.12 480.356 99.6396V95.4996H475.076C470.876 95.4996 468.776 96.8196 468.776 99.4596V100.66C468.776 101.9 469.236 102.84 470.156 103.48C471.076 104.12 472.336 104.44 473.936 104.44ZM519.632 78.0396H527.432L512.612 114.52C511.772 116.64 510.652 118.24 509.252 119.32C507.852 120.44 505.872 121 503.312 121H497.672V114.94H505.052L507.392 108.7L494.912 78.0396H503.072L507.812 90.9996L511.112 100.84H511.532L514.832 90.9996L519.632 78.0396Z" fill="#1DB818" fill-opacity="0.51"/>
</svg>
