<svg width="14" height="23" viewBox="0 0 14 23" fill="none" xmlns="http://www.w3.org/2000/svg">
<path d="M14 4.92857C14 5.55833 13.9394 6.10595 13.8182 6.57143C13.9394 7.00952 14 7.55714 14 8.21428C14 8.84405 13.9394 9.39167 13.8182 9.85714H11.5455C11.6667 10.2952 11.7273 10.8429 11.7273 11.5C11.7273 12.1298 11.6667 12.6774 11.5455 13.1429H9.27273C9.39394 13.581 9.45455 14.1286 9.45455 14.7857C9.45455 15.4155 9.39394 15.9631 9.27273 16.4286H5.63636C5.51515 15.9631 5.45455 15.4155 5.45455 14.7857C5.45455 14.1286 5.51515 13.581 5.63636 13.1429H7.90909C7.78788 12.6774 7.72727 12.1298 7.72727 11.5C7.72727 10.8429 7.78788 10.2952 7.90909 9.85714H10.1818C10.0606 9.39167 10 8.84405 10 8.21428C10 7.55714 10.0606 7.00952 10.1818 6.57143C10.0606 6.10595 10 5.55833 10 4.92857C10 4.27143 10.0606 3.72381 10.1818 3.28571H3.81818C3.93939 3.72381 4 4.27143 4 4.92857C4 5.55833 3.93939 6.10595 3.81818 6.57143H0.181818C0.0606061 6.10595 0 5.55833 0 4.92857C0 4.27143 0.0606061 3.72381 0.181818 3.28571H2.90909C2.78788 2.82024 2.72727 2.27262 2.72727 1.64286C2.72727 0.985713 2.78788 0.438094 2.90909 0H12C12.1212 0.438094 12.1818 0.985713 12.1818 1.64286C12.1818 2.27262 12.1212 2.82024 12 3.28571H13.8182C13.9394 3.72381 14 4.27143 14 4.92857ZM9.27273 19.7143C9.39394 20.1524 9.45455 20.7 9.45455 21.3571C9.45455 21.9869 9.39394 22.5345 9.27273 23H5.63636C5.51515 22.5345 5.45455 21.9869 5.45455 21.3571C5.45455 20.7 5.51515 20.1524 5.63636 19.7143H9.27273Z" fill="#145E14"/>
</svg>
