<svg width="26" height="23" viewBox="0 0 26 23" fill="none" xmlns="http://www.w3.org/2000/svg">
<path d="M9.52 11.2C9.52 11.8133 9.46667 12.3467 9.36 12.8H7.36C7.46667 13.2267 7.52 13.76 7.52 14.4C7.52 15.0133 7.46667 15.5467 7.36 16H5.36C5.46667 16.4267 5.52 16.96 5.52 17.6C5.52 18.2133 5.46667 18.7467 5.36 19.2H3.36C3.46667 19.6267 3.52 20.16 3.52 20.8C3.52 21.4133 3.46667 21.9467 3.36 22.4H0.16C0.0533333 21.9467 0 21.4133 0 20.8C0 20.16 0.0533333 19.6267 0.16 19.2H2.16C2.05333 18.7467 2 18.2133 2 17.6C2 16.96 2.05333 16.4267 2.16 16H4.16C4.05333 15.5467 4 15.0133 4 14.4C4 13.76 4.05333 13.2267 4.16 12.8H6.16C6.05333 12.3467 6 11.8133 6 11.2C6 10.56 6.05333 10.0267 6.16 9.6H4.16C4.05333 9.14667 4 8.61333 4 8C4 7.36 4.05333 6.82667 4.16 6.4H2.16C2.05333 5.94667 2 5.41333 2 4.8C2 4.16 2.05333 3.62667 2.16 3.2H0.16C0.0533333 2.74667 0 2.21333 0 1.6C0 0.959999 0.0533333 0.426666 0.16 0H3.36C3.46667 0.426666 3.52 0.959999 3.52 1.6C3.52 2.21333 3.46667 2.74667 3.36 3.2H5.36C5.46667 3.62667 5.52 4.16 5.52 4.8C5.52 5.41333 5.46667 5.94667 5.36 6.4H7.36C7.46667 6.82667 7.52 7.36 7.52 8C7.52 8.61333 7.46667 9.14667 7.36 9.6H9.36C9.46667 10.0267 9.52 10.56 9.52 11.2Z" fill="#26DF21"/>
<path d="M25.5356 11.2C25.5356 11.8133 25.4823 12.3467 25.3756 12.8H23.3756C23.4823 13.2267 23.5356 13.76 23.5356 14.4C23.5356 15.0133 23.4823 15.5467 23.3756 16H21.3756C21.4823 16.4267 21.5356 16.96 21.5356 17.6C21.5356 18.2133 21.4823 18.7467 21.3756 19.2H19.3756C19.4823 19.6267 19.5356 20.16 19.5356 20.8C19.5356 21.4133 19.4823 21.9467 19.3756 22.4H16.1756C16.069 21.9467 16.0156 21.4133 16.0156 20.8C16.0156 20.16 16.069 19.6267 16.1756 19.2H18.1756C18.069 18.7467 18.0156 18.2133 18.0156 17.6C18.0156 16.96 18.069 16.4267 18.1756 16H20.1756C20.069 15.5467 20.0156 15.0133 20.0156 14.4C20.0156 13.76 20.069 13.2267 20.1756 12.8H22.1756C22.069 12.3467 22.0156 11.8133 22.0156 11.2C22.0156 10.56 22.069 10.0267 22.1756 9.6H20.1756C20.069 9.14667 20.0156 8.61333 20.0156 8C20.0156 7.36 20.069 6.82667 20.1756 6.4H18.1756C18.069 5.94667 18.0156 5.41333 18.0156 4.8C18.0156 4.16 18.069 3.62667 18.1756 3.2H16.1756C16.069 2.74667 16.0156 2.21333 16.0156 1.6C16.0156 0.959999 16.069 0.426666 16.1756 0H19.3756C19.4823 0.426666 19.5356 0.959999 19.5356 1.6C19.5356 2.21333 19.4823 2.74667 19.3756 3.2H21.3756C21.4823 3.62667 21.5356 4.16 21.5356 4.8C21.5356 5.41333 21.4823 5.94667 21.3756 6.4H23.3756C23.4823 6.82667 23.5356 7.36 23.5356 8C23.5356 8.61333 23.4823 9.14667 23.3756 9.6H25.3756C25.4823 10.0267 25.5356 10.56 25.5356 11.2Z" fill="#26DF21"/>
</svg>
