<svg width="20" height="21" viewBox="0 0 20 21" fill="none" xmlns="http://www.w3.org/2000/svg">
<path fill-rule="evenodd" clip-rule="evenodd" d="M20 10.0039C20 15.5268 15.5228 20.0039 10 20.0039C4.47715 20.0039 0 15.5268 0 10.0039C0 4.48106 4.47715 0.00390625 10 0.00390625C15.5228 0.00390625 20 4.48106 20 10.0039ZM10.9098 14.7165C10.0665 15.0625 9.16282 15.2376 8.25129 15.2314L8.25254 15.2339C6.93121 15.2373 5.63764 14.8548 4.53067 14.1333C4.72322 14.1579 4.91718 14.1698 5.11129 14.1689C6.20764 14.1708 7.27288 13.8046 8.13629 13.1289C7.6282 13.1198 7.13575 12.9517 6.72814 12.6482C6.32053 12.3447 6.01825 11.9212 5.86379 11.437C6.01502 11.4674 6.16891 11.4827 6.32317 11.4827C6.53978 11.4829 6.75545 11.4541 6.96442 11.397C6.41305 11.2855 5.91721 10.9868 5.561 10.5514C5.20479 10.116 5.01013 9.57081 5.01004 9.00828V8.97828C5.34707 9.16668 5.72471 9.27068 6.11067 9.28141C5.59406 8.9382 5.22797 8.41071 5.08719 7.80668C4.9464 7.20265 5.04154 6.56765 5.35317 6.03141C5.96436 6.78411 6.72716 7.39973 7.59195 7.8382C8.45674 8.27668 9.40414 8.5282 10.3725 8.5764C10.3274 8.39468 10.3054 8.20801 10.3069 8.02078C10.308 7.53303 10.4555 7.05684 10.7301 6.65378C11.0048 6.25072 11.3941 5.93933 11.8476 5.75988C12.3012 5.58043 12.7981 5.54117 13.2742 5.64718C13.7503 5.7532 14.1836 5.9996 14.5182 6.35453C15.0627 6.24605 15.5851 6.04636 16.0632 5.76391C15.8825 6.32871 15.5017 6.8081 14.9925 7.11203C15.4751 7.0536 15.9465 6.92429 16.3913 6.72828C16.0634 7.21766 15.6514 7.64509 15.1744 7.99078C15.1794 8.09137 15.1794 8.19695 15.1794 8.30316V8.30328C15.1856 9.21481 15.0106 10.1185 14.6646 10.9618C14.3186 11.8052 13.8085 12.5713 13.1639 13.2159C12.5194 13.8605 11.7532 14.3706 10.9098 14.7165Z" fill="#1DB818"/>
</svg>
